<svg width="356" height="392" viewBox="0 0 356 392" fill="none" xmlns="http://www.w3.org/2000/svg">
<path d="M208 8.32051C189.436 -2.39746 166.564 -2.39747 148 8.3205L30.4648 76.1795C11.9007 86.8975 0.464783 106.705 0.464783 128.141V263.859C0.464783 285.295 11.9007 305.103 30.4648 315.821L148 383.679C166.564 394.397 189.436 394.397 208 383.679L325.535 315.821C344.099 305.103 355.535 285.295 355.535 263.859V128.141C355.535 106.705 344.099 86.8975 325.535 76.1795L208 8.32051Z" fill="#F3DFA9"/>
<path fill-rule="evenodd" clip-rule="evenodd" d="M148 8.3205C166.564 -2.39747 189.436 -2.39746 208 8.32051L325.535 76.1795C344.099 86.8975 355.535 106.705 355.535 128.141V263.859C355.535 285.295 344.099 305.103 325.535 315.821L208 383.679C189.436 394.397 166.564 394.397 148 383.679L30.4648 315.821C11.9007 305.103 0.464783 285.295 0.464783 263.859V128.141C0.464783 106.705 11.9007 86.8975 30.4648 76.1795L148 8.3205ZM148 27.3205C166.564 16.6025 189.436 16.6025 208 27.3205L309.081 85.6795C327.645 96.3975 339.081 116.205 339.081 137.641V254.359C339.081 275.795 327.645 295.603 309.081 306.321L208 364.679C189.436 375.397 166.564 375.397 148 364.679L46.9193 306.321C28.3552 295.603 16.9193 275.795 16.9193 254.359V137.641C16.9193 116.205 28.3552 96.3975 46.9193 85.6795L148 27.3205Z" fill="#473504"/>
<path d="M182.534 19.4534L182.747 191.397L350.945 285.005L351.489 285.521C346.622 298.088 337.579 308.867 325.535 315.821L208 383.679C189.436 394.397 166.564 394.397 148 383.679L30.4648 315.821C18.6784 309.016 9.76535 298.547 4.82819 286.323L6.05917 285.002L174.747 191.397L174.534 19.3821C177.199 19.2281 179.872 19.2519 182.534 19.4534Z" fill="#675012" fill-opacity="0.4"/>
<path d="M349.249 290.595L349.381 290.67C348.182 293.055 346.825 295.358 345.319 297.563L345.215 297.503C346.712 295.292 348.06 292.984 349.249 290.595Z" fill="#675012" fill-opacity="0.2"/>
<path d="M5.03299 286.103L6.05917 285.002L174.747 191.397L174.534 0.382094C174.733 0.370619 175.176 0.304871 175.826 0.193085C166.277 0.576798 156.799 3.24013 148.238 8.1831L30.7028 76.0421C12.1387 86.7601 0.702789 106.568 0.702789 128.004V263.722C0.702789 271.517 2.21524 279.097 5.03299 286.103Z" fill="#675012" fill-opacity="0.2"/>
<path d="M220.011 187.621C222.778 236.317 180.476 278.316 180.476 278.316C180.476 278.316 133.544 244.82 135.685 194.508C137.826 144.196 177.813 109.703 177.813 109.703C177.813 109.703 217.245 138.925 220.011 187.621Z" fill="#44AB05"/>
<path d="M90.2944 245.887C122.641 282.392 182.251 282.392 182.251 282.392C182.251 282.392 191.955 225.555 154.987 191.36C118.02 157.165 65.3414 160.862 65.3414 160.862C65.3414 160.862 57.9479 209.382 90.2944 245.887Z" fill="#4ABC05"/>
<path d="M267.698 245.887C235.352 282.392 175.742 282.392 175.742 282.392C175.742 282.392 166.038 225.555 203.005 191.36C239.973 157.165 292.651 160.862 292.651 160.862C292.651 160.862 300.045 209.382 267.698 245.887Z" fill="#3D9B04"/>
<path d="M138.143 179.167C138.143 137.757 178.052 109.108 178.052 109.108C178.052 109.108 218.254 137.757 218.254 179.167M140.623 180.92C104.637 154.692 64.8396 160.862 64.8396 160.862C64.8396 160.862 56.984 201.064 89.3305 241.728C121.677 282.392 174.818 282.392 174.818 282.392C174.818 282.392 234.428 282.392 266.774 245.887C299.121 209.382 291.727 160.862 291.727 160.862C291.727 160.862 239.049 157.165 202.081 191.36C190.149 202.397 183.135 216.775 178.976 232.024" stroke="#154531" stroke-width="8" stroke-linecap="round"/>
<path d="M179.146 115.577C179.146 115.577 148.478 134.061 141.085 178.422" stroke="#253622" stroke-opacity="0.1" stroke-width="12" stroke-linecap="round"/>
<path d="M286.182 171.952C286.182 171.952 284.418 214.753 255.822 246.955C227.227 279.158 174.529 279.158 174.529 279.158C174.529 279.158 127.55 279.158 98.9539 243.287C70.3581 207.416 70.8473 171.952 70.8473 171.952" stroke="#253622" stroke-opacity="0.1" stroke-width="12" stroke-linecap="round"/>
</svg>
