<svg id="Layer_1" data-name="Layer 1" xmlns="http://www.w3.org/2000/svg" viewBox="0 0 80 80">
  <defs>
    <style>.cls-1,.cls-2{fill:none;stroke:#000;stroke-linecap:round;stroke-linejoin:round;}.cls-1{stroke-width:0.6px;}.cls-2{stroke-width:0.3px;}</style>
  </defs>
  <path class="cls-1" d="M11.92,25.87a2.35,2.35,0,0,0-1.63-2.27C8.61,23.08.94,22.5,1,14.37c0,0,.16-8.34,6.22-9.12a2.39,2.39,0,0,1,1.64.4c1,.69.85,1,2.59.94,2.1-.12,4,.58,6,2.78s4.24,11.09-.7,13.42S11.92,25.87,11.92,25.87Z" />
  <path class="cls-1" d="M19.53,18.85c2.39-5,9.12-4.6,12.14-4.37s1.33,1.63,2.49,2.91.82,4.53.35,6.5.18,4.65-4.18,7.44-10.28-1.75-10.28-1.75a10.41,10.41,0,0,1-1.65-8.11" />
  <path class="cls-1" d="M20.05,29.58A36.67,36.67,0,0,0,16.51,33c-2.15,2.32.93,7,.93,7a24.28,24.28,0,0,0,5.92,6.6c3.78,2.81,2,5.94,6.74,8.27s10.64,2.93,13,4.66" />
  <path class="cls-1" d="M11.88,27a8.14,8.14,0,0,1,0-1.09" />
  <path class="cls-1" d="M14.25,33.55a7.29,7.29,0,0,0,1.5,1.27" />
  <path class="cls-1" d="M31.68,30.34A34.85,34.85,0,0,1,37,31.85c3.25,1.16,3.26,3.66,3.26,3.66C39.18,41.84,33.87,46.6,28.47,47S21.62,40,21.62,40s.76-8.14,3.66-8" />
  <path class="cls-1" d="M9.18,51.42C7.44,51.37,6.87,49,5.88,48.8s-1.33-2.14-1.22-2.89.4-1.63.58-2.45S5,41.67,8.73,39.57,15.11,41.2,16,43.35s1.17,2,1.17,2-1.21.82-1.45,1.39" />
  <path class="cls-1" d="M22.43,52.76s-.23-5-3.19-5.8a8.4,8.4,0,0,0-3.48-.24c-2.46.38-5.25,2.05-7.73,6.56L6.81,55a6.61,6.61,0,0,1,2,2.85c.24,1.34,4.93,5.69,9.12,2.67A11.38,11.38,0,0,0,22.43,52.76Z" />
  <path class="cls-1" d="M5.75,41.83S3.5,41.26,3.09,37s.29-4,.23-5.75.87-1.69,1.75-2.56,8.07-3.6,9.23,0-1.15,6.68-.49,8,3,2.29,3,2.29" />
  <path class="cls-1" d="M11.16,39s1.41-2.93,2.65-2.29" />
  <path class="cls-1" d="M29.63,46.81s-1.16.78.53,4.61,9,2.66,9,2.66,6.44-3.7,3.66-7.71-6-3.76-6-3.76" />
  <path class="cls-1" d="M28.12,60.37s-6.5,3.89-7.72,5.17-4,.34-5.23,0-2.61.4-2.21-.82,1.86-1.44,3.32-1.44,4.06-1.52,5.8-2.91S28.12,60.37,28.12,60.37Z" />
  <path class="cls-1" d="M50.54,65.13s-4.06,6.68-7.37,4.47-1.22-7.14-.82-8.94,1.92-1,2.91-2,6.33-3.13,7.6-.58S52.75,63.62,50.54,65.13Z" />
  <path class="cls-1" d="M41.35,65.13c0,6.15-5.68,5.86-6.4,4.92s-2.24-.8-3.57-1.15-3.26-3.77-3.26-3.77,1.11-4.94,3.31-5,7-2.26,8.08.82,2,3.15,2,3.15" />
  <path class="cls-1" d="M50.54,65.13s6.27,6.1,14.58,7.78A90.94,90.94,0,0,0,79,74.77" />
  <path class="cls-1" d="M22.43,52.76s4.41,1,5.2.34" />
  <path class="cls-1" d="M17.21,45.33a5.89,5.89,0,0,0,4.13-.42" />
  <path class="cls-1" d="M39.91,58.17a9.12,9.12,0,0,0-.75-4.09" />
  <path class="cls-1" d="M28.12,60.37s3.23-3.92,6-3.91" />
  <path class="cls-1" d="M19.24,42.6S19.3,41,21.62,40" />
  <path class="cls-2" d="M11.46,24.42S7.53,12.84,8.86,5.65" />
  <path class="cls-2" d="M19.71,29.09s8.52-4.85,14-12.6" />
  <path class="cls-2" d="M1.33,17.14s6.89.85,9.09,3.75" />
  <path class="cls-2" d="M1.13,13s7.53.43,8.41,4.17" />
  <path class="cls-2" d="M3,7.89s5.22.79,5.81,4.45" />
  <path class="cls-2" d="M10.7,21.93s3-5.5,8.94-6.38" />
  <path class="cls-2" d="M9.71,18s1.46-7.65,7.12-9.23" />
  <path class="cls-2" d="M8.85,13S8.9,8,11.45,6.59" />
  <path class="cls-2" d="M22.05,27.6s5.43,0,8.28,3.73" />
  <path class="cls-2" d="M25.55,25S31.87,23.7,34,26.9" />
  <path class="cls-2" d="M28.65,22.27s4.36-2.21,6.24-.76" />
  <path class="cls-2" d="M23.61,26.49a10.92,10.92,0,0,0-2.27-10" />
  <path class="cls-2" d="M21.09,28.24a6.63,6.63,0,0,0,0-6" />
  <path class="cls-2" d="M27.87,23s1.76-5.28-.68-8.55" />
  <path class="cls-2" d="M26.19,19.89s.45-3.23-.9-5.16" />
  <path class="cls-2" d="M14.3,15.55A18.62,18.62,0,0,1,19.14,13" />
  <path class="cls-2" d="M1.46,11.33a17.27,17.27,0,0,1,4.13,1" />
  <path class="cls-2" d="M12.89,36.75s-5.22-5.64-9.37-6.66" />
  <path class="cls-2" d="M3,34.37s3.72-3,5.24-1.8" />
  <path class="cls-2" d="M3.29,38.3s4.87-5.37,7.13-3.93" />
  <path class="cls-2" d="M8.21,37.77s2.24-3.48,3.46-2.25" />
  <path class="cls-2" d="M7.38,27.6s-.11,4.14,1.47,5.45" />
  <path class="cls-2" d="M10.15,27s-.56,6.58.77,7.86" />
  <path class="cls-2" d="M4.88,44.91s10,.7,11.84-.17" />
  <path class="cls-2" d="M6.81,40.8s1.68,4.4,4.35,4.37" />
  <path class="cls-2" d="M9.54,42.6s1.78,2.62,3.3,2.57" />
  <path class="cls-2" d="M7.08,49.94s4.31-5,7.22-4.82" />
  <path class="cls-2" d="M6.81,55s13.7-3.6,15.62-3" />
  <path class="cls-2" d="M9.71,59.21s1.78-5.49,4.91-6.12" />
  <path class="cls-2" d="M11.67,60.68s2.06-7.58,5.54-8.13" />
  <path class="cls-2" d="M16.45,56.15s1.12-3.73,2.69-3.95" />
  <path class="cls-2" d="M10.92,49.32A4.92,4.92,0,0,0,15.17,53" />
  <path class="cls-2" d="M13.81,47.3s2.52,4,6.62,4.72" />
  <path class="cls-2" d="M21.82,40.8s9.23-6,18.45-5.29" />
  <path class="cls-2" d="M27.63,46.94s.07-6.81-4-7.21" />
  <path class="cls-2" d="M34.12,45s-2.63-5.49-8.32-6.31" />
  <path class="cls-2" d="M31,36.65s4.65.69,7.46,3.67" />
  <path class="cls-2" d="M27.84,37.77a13.52,13.52,0,0,1,4.29,2" />
  <path class="cls-2" d="M25,39a10,10,0,0,0,1.55-6.81" />
  <path class="cls-2" d="M30,37a7.67,7.67,0,0,0,1-6.1" />
  <path class="cls-2" d="M34.77,35.78a5.72,5.72,0,0,0,1.61-4.15" />
  <path class="cls-2" d="M33.24,36.07a8.67,8.67,0,0,0,.88-2.75" />
  <path class="cls-2" d="M38.35,54.18S36.73,48,33.18,45.53" />
  <path class="cls-2" d="M30.16,51.42s6.32-.4,7.66,1.13" />
  <path class="cls-2" d="M32.13,48.69s3.57-.65,4.23.63" />
  <path class="cls-2" d="M40.27,43.78s-4.11,4.33-3,7.36" />
  <path class="cls-2" d="M38.67,51.42s.58-4.56,3.23-6.2" />
  <path class="cls-2" d="M28.12,65.13s10.21.19,12.8-1.42" />
  <path class="cls-2" d="M35.21,64.91c-2.72.32-5.66-3.38-5.66-3.38" />
  <path class="cls-2" d="M34.24,59.64s.49,5.39,3.87,4.93" />
  <path class="cls-2" d="M37.07,62.12s.46,2.34,2.09,2.24" />
  <path class="cls-2" d="M30.56,68.41a8,8,0,0,1,5.2-3.55" />
  <path class="cls-2" d="M35,70.05s2-5.14,5-5.9" />
  <path class="cls-2" d="M37.44,70.51s.22-2.43,1.06-3.41" />
  <path class="cls-2" d="M42.35,60.66s6.86,2.39,7.78,5.08" />
  <path class="cls-2" d="M46.24,58s-1.51,2.83,0,4.42" />
  <path class="cls-2" d="M49.78,56.86s-2.36,4.68-.86,7.29" />
  <path class="cls-2" d="M41.67,63.2s3.45-1.73,5.35-.39" />
  <path class="cls-2" d="M41.39,66.64s4.61-3.84,6.33-3.4" />
  <path class="cls-2" d="M44.55,67.45s2.53-3.2,5.07-2.59" />
  <path class="cls-2" d="M51.37,56.93a21.75,21.75,0,0,0-.83,4.6" />
  <path d="M19,54.06a.2.2,0,0,0,0-.4.2.2,0,0,0,0,.4Z" />
  <path d="M20.14,53.39a.2.2,0,0,0,0-.4.2.2,0,0,0,0,.4Z" />
  <path d="M20.28,54.67a.2.2,0,0,0,0-.4.2.2,0,0,0,0,.4Z" />
  <path d="M18.74,56.36a.2.2,0,0,0,0-.4.2.2,0,0,0,0,.4Z" />
  <path d="M20.63,51.1a.2.2,0,0,0,0-.4.2.2,0,0,0,0,.4Z" />
  <path d="M19.21,50.69a.2.2,0,0,0,0-.4.2.2,0,0,0,0,.4Z" />
  <path d="M20.14,49.82a.2.2,0,0,0,0-.4.2.2,0,0,0,0,.4Z" />
  <path d="M16.71,51.85a.2.2,0,0,0,0-.4.2.2,0,0,0,0,.4Z" />
  <path d="M15.64,51.56a.2.2,0,0,0,0-.4.2.2,0,0,0,0,.4Z" />
  <path d="M14.59,51.88a.2.2,0,0,0,0-.4.2.2,0,0,0,0,.4Z" />
  <path d="M13.05,44a.2.2,0,0,0,0-.4.2.2,0,0,0,0,.4Z" />
  <path d="M14.56,44.22a.2.2,0,0,0,0-.4.2.2,0,0,0,0,.4Z" />
  <path d="M13.55,43.08a.2.2,0,0,0,0-.4.2.2,0,0,0,0,.4Z" />
  <path d="M11.89,43.23a.2.2,0,0,0,0-.4.2.2,0,0,0,0,.4Z" />
  <path d="M16.22,57.34a.2.2,0,0,0,0-.4.2.2,0,0,0,0,.4Z" />
  <path d="M15.9,58.3a.2.2,0,0,0,0-.4.2.2,0,0,0,0,.4Z" />
  <path d="M11.8,53a.2.2,0,0,0,0-.4.2.2,0,0,0,0,.4Z" />
  <path d="M10.84,53.07a.2.2,0,0,0,0-.4.2.2,0,0,0,0,.4Z" />
  <path d="M12.62,35.33a.2.2,0,0,0,0-.4.2.2,0,0,0,0,.4Z" />
  <path d="M11.83,34.37a.2.2,0,0,0,0-.4.2.2,0,0,0,0,.4Z" />
  <path d="M11.43,33.18a.2.2,0,0,0,0-.4.2.2,0,0,0,0,.4Z" />
  <path d="M12.56,33.68a.2.2,0,0,0,0-.4.2.2,0,0,0,0,.4Z" />
  <path d="M12.44,32.46a.2.2,0,0,0,0-.4.2.2,0,0,0,0,.4Z" />
  <path d="M11.8,31.24a.2.2,0,0,0,0-.4.2.2,0,0,0,0,.4Z" />
  <path d="M9,35.45a.2.2,0,0,0,0-.4.2.2,0,0,0,0,.4Z" />
  <path d="M7.82,35.94a.2.2,0,0,0,0-.4.2.2,0,0,0,0,.4Z" />
  <path d="M7.77,37a.2.2,0,0,0,0-.4.2.2,0,0,0,0,.4Z" />
  <path d="M6.05,38.67a.2.2,0,0,0,0-.4.2.2,0,0,0,0,.4Z" />
  <path d="M7.24,33.68a.2.2,0,0,0,0-.4.2.2,0,0,0,0,.4Z" />
  <path d="M5.85,33.73a.2.2,0,0,0,0-.4.2.2,0,0,0,0,.4Z" />
  <path d="M8.64,18.46a.2.2,0,0,0,0-.4.2.2,0,0,0,0,.4Z" />
  <path d="M8.43,17a.2.2,0,0,0,0-.4.2.2,0,0,0,0,.4Z" />
  <path d="M7.48,17.76a.2.2,0,0,0,0-.4.2.2,0,0,0,0,.4Z" />
  <path d="M7.13,16.25a.2.2,0,0,0,0-.4.2.2,0,0,0,0,.4Z" />
  <path d="M5.24,15.58a.2.2,0,0,0,0-.4.2.2,0,0,0,0,.4Z" />
  <path d="M3.9,15.61a.2.2,0,0,0,0-.4.2.2,0,0,0,0,.4Z" />
  <path d="M11.05,19.77a.2.2,0,0,0,0-.4.2.2,0,0,0,0,.4Z" />
  <path d="M10.87,18.4a.2.2,0,0,0,0-.4.2.2,0,0,0,0,.4Z" />
  <path d="M11.89,18.4a.2.2,0,0,0,0-.4.2.2,0,0,0,0,.4Z" />
  <path d="M11.6,16.54a.2.2,0,0,0,0-.4.2.2,0,0,0,0,.4Z" />
  <path d="M11.8,22.32a.2.2,0,0,0,0-.4.2.2,0,0,0,0,.4Z" />
  <path d="M12.5,23.4a.2.2,0,0,0,0-.4.2.2,0,0,0,0,.4Z" />
  <path d="M13.08,22.18a.2.2,0,0,0,0-.4.2.2,0,0,0,0,.4Z" />
  <path d="M13.14,21.07a.2.2,0,0,0,0-.4.2.2,0,0,0,0,.4Z" />
  <path d="M15.08,20.81a.2.2,0,0,0,0-.4.2.2,0,0,0,0,.4Z" />
  <path d="M10.23,13a.2.2,0,0,0,0-.4.2.2,0,0,0,0,.4Z" />
  <path d="M11.66,9.92a.2.2,0,0,0,0-.4.2.2,0,0,0,0,.4Z" />
  <path d="M15.43,11.37a.2.2,0,0,0,0-.4.2.2,0,0,0,0,.4Z" />
  <path d="M16.25,12.68a.2.2,0,0,0,0-.4.2.2,0,0,0,0,.4Z" />
  <path d="M4.14,10.47a.2.2,0,0,0,0-.4.2.2,0,0,0,0,.4Z" />
  <path d="M5.39,10.73a.2.2,0,0,0,0-.4.2.2,0,0,0,0,.4Z" />
  <path d="M25.19,23.86a.2.2,0,0,0,0-.4.2.2,0,0,0,0,.4Z" />
  <path d="M26.09,23.25a.2.2,0,0,0,0-.4.2.2,0,0,0,0,.4Z" />
  <path d="M25.13,22.5a.2.2,0,0,0,0-.4.2.2,0,0,0,0,.4Z" />
  <path d="M27.14,22a.2.2,0,0,0,0-.4.2.2,0,0,0,0,.4Z" />
  <path d="M29.08,23.77a.2.2,0,0,0,0-.4.2.2,0,0,0,0,.4Z" />
  <path d="M30.42,23.05a.2.2,0,0,0,0-.4.2.2,0,0,0,0,.4Z" />
  <path d="M31,24.27a.2.2,0,0,0,0-.4.2.2,0,0,0,0,.4Z" />
  <path d="M29.63,16.46a.2.2,0,0,0,0-.4.2.2,0,0,0,0,.4Z" />
  <path d="M30.79,16.75a.2.2,0,0,0,0-.4.2.2,0,0,0,0,.4Z" />
  <path d="M30.16,18.26a.2.2,0,0,0,0-.4.2.2,0,0,0,0,.4Z" />
  <path d="M21.65,29.23a.2.2,0,0,0,0-.4.2.2,0,0,0,0,.4Z" />
  <path d="M22.55,28.71a.2.2,0,0,0,0-.4.2.2,0,0,0,0,.4Z" />
  <path d="M23.59,29.73a.2.2,0,0,0,0-.4.2.2,0,0,0,0,.4Z" />
  <path d="M22.29,29.76a.2.2,0,0,0,0-.4.2.2,0,0,0,0,.4Z" />
  <path d="M27.48,33.65a.2.2,0,0,0,0-.4.2.2,0,0,0,0,.4Z" />
  <path d="M28.79,33.5a.2.2,0,0,0,0-.4.2.2,0,0,0,0,.4Z" />
  <path d="M29.78,33.07a.2.2,0,0,0,0-.4.2.2,0,0,0,0,.4Z" />
  <path d="M29.84,34.17a.2.2,0,0,0,0-.4.2.2,0,0,0,0,.4Z" />
  <path d="M28.36,34.63a.2.2,0,0,0,0-.4.2.2,0,0,0,0,.4Z" />
  <path d="M32.54,31.85a.2.2,0,0,0,0-.4.2.2,0,0,0,0,.4Z" />
  <path d="M32.22,32.75a.2.2,0,0,0,0-.4.2.2,0,0,0,0,.4Z" />
  <path d="M33.5,32.4a.2.2,0,0,0,0-.4.2.2,0,0,0,0,.4Z" />
  <path d="M25.25,33.62a.2.2,0,0,0,0-.4.2.2,0,0,0,0,.4Z" />
  <path d="M24.35,34.37a.2.2,0,0,0,0-.4.2.2,0,0,0,0,.4Z" />
  <path d="M25,35.24a.2.2,0,0,0,0-.4.2.2,0,0,0,0,.4Z" />
  <path d="M19.5,22.41a.2.2,0,0,0,0-.4.2.2,0,0,0,0,.4Z" />
  <path d="M19.93,21.62a.2.2,0,0,0,0-.4.2.2,0,0,0,0,.4Z" />
  <path d="M20.54,20.55a.2.2,0,0,0,0-.4.2.2,0,0,0,0,.4Z" />
  <path d="M21.39,21.36a.2.2,0,0,0,0-.4.2.2,0,0,0,0,.4Z" />
  <path d="M21,19.39a.2.2,0,0,0,0-.4.2.2,0,0,0,0,.4Z" />
  <path d="M23.39,41.2a.2.2,0,0,0,0-.4.2.2,0,0,0,0,.4Z" />
  <path d="M24.58,41.37a.2.2,0,0,0,0-.4.2.2,0,0,0,0,.4Z" />
  <path d="M24.55,42.24a.2.2,0,0,0,0-.4.2.2,0,0,0,0,.4Z" />
  <path d="M26.26,40.09a.2.2,0,0,0,0-.4.2.2,0,0,0,0,.4Z" />
  <path d="M27.54,40.5a.2.2,0,0,0,0-.4.2.2,0,0,0,0,.4Z" />
  <path d="M27.48,41.81a.2.2,0,0,0,0-.4.2.2,0,0,0,0,.4Z" />
  <path d="M35.15,45.9a.2.2,0,0,0,0-.4.2.2,0,0,0,0,.4Z" />
  <path d="M36.28,45.06a.2.2,0,0,0,0-.4.2.2,0,0,0,0,.4Z" />
  <path d="M37.07,44.33a.2.2,0,0,0,0-.4.2.2,0,0,0,0,.4Z" />
  <path d="M37.27,45.73a.2.2,0,0,0,0-.4.2.2,0,0,0,0,.4Z" />
  <path d="M36.2,46.25a.2.2,0,0,0,0-.4.2.2,0,0,0,0,.4Z" />
  <path d="M30.68,48.05a.2.2,0,0,0,0-.4.2.2,0,0,0,0,.4Z" />
  <path d="M31.78,47.85a.2.2,0,0,0,0-.4.2.2,0,0,0,0,.4Z" />
  <path d="M33,47.24a.2.2,0,0,0,0-.4.2.2,0,0,0,0,.4Z" />
  <path d="M33.9,47.85a.2.2,0,0,0,0-.4.2.2,0,0,0,0,.4Z" />
  <path d="M40.23,65.36a.2.2,0,0,0,0-.4.2.2,0,0,0,0,.4Z" />
  <path d="M39.45,65.76a.2.2,0,0,0,0-.4.2.2,0,0,0,0,.4Z" />
  <path d="M39.88,66.9a.2.2,0,0,0,0-.4.2.2,0,0,0,0,.4Z" />
  <path d="M23.48,61.41a.2.2,0,0,0,0-.4.2.2,0,0,0,0,.4Z" />
  <path d="M22.81,61.87a.2.2,0,0,0,0-.4.2.2,0,0,0,0,.4Z" />
  <path d="M15.75,64.72a.2.2,0,0,0,0-.4.2.2,0,0,0,0,.4Z" />
  <path d="M16.77,64.83a.2.2,0,0,0,0-.4.2.2,0,0,0,0,.4Z" />
  <path d="M18.05,65a.2.2,0,0,0,0-.4.2.2,0,0,0,0,.4Z" />
  <path d="M40,51.65a.2.2,0,0,0,0-.4.2.2,0,0,0,0,.4Z" />
  <path d="M41,51.13a.2.2,0,0,0,0-.4.2.2,0,0,0,0,.4Z" />
  <path d="M40.26,50.63a.2.2,0,0,0,0-.4.2.2,0,0,0,0,.4Z" />
  <path d="M41.1,49.79a.2.2,0,0,0,0-.4.2.2,0,0,0,0,.4Z" />
  <path d="M48.62,65.88a.2.2,0,0,0,0-.4.2.2,0,0,0,0,.4Z" />
  <path d="M47.55,66.26a.2.2,0,0,0,0-.4.2.2,0,0,0,0,.4Z" />
  <path d="M47.7,67.13a.2.2,0,0,0,0-.4.2.2,0,0,0,0,.4Z" />
  <path d="M46.3,67.45a.2.2,0,0,0,0-.4.2.2,0,0,0,0,.4Z" />
  <path d="M47.41,64.31a.2.2,0,0,0,0-.4.2.2,0,0,0,0,.4Z" />
  <path d="M46.16,64.72a.2.2,0,0,0,0-.4.2.2,0,0,0,0,.4Z" />
  <path d="M47.49,62.08a.2.2,0,0,0,0-.4.2.2,0,0,0,0,.4Z" />
  <path d="M46.71,61.5a.2.2,0,0,0,0-.4.2.2,0,0,0,0,.4Z" />
  <path d="M47.43,61a.2.2,0,0,0,0-.4.2.2,0,0,0,0,.4Z" />
  <path d="M50.6,62.6a.2.2,0,0,0,0-.4.2.2,0,0,0,0,.4Z" />
  <path d="M34.66,64.08a.2.2,0,0,0,0-.4.2.2,0,0,0,0,.4Z" />
  <path d="M33.61,63.88a.2.2,0,0,0,0-.4.2.2,0,0,0,0,.4Z" />
  <path d="M34,63a.2.2,0,0,0,0-.4.2.2,0,0,0,0,.4Z" />
  <path d="M32.89,62.72a.2.2,0,0,0,0-.4.2.2,0,0,0,0,.4Z" />
  <path d="M32.39,67.94a.2.2,0,0,0,0-.4.2.2,0,0,0,0,.4Z" />
  <path d="M33.23,67.22a.2.2,0,0,0,0-.4.2.2,0,0,0,0,.4Z" />
  <path d="M33.67,68.32a.2.2,0,0,0,0-.4.2.2,0,0,0,0,.4Z" />
  <path d="M9.16,55.51a.2.2,0,0,0,0-.4.2.2,0,0,0,0,.4Z" />
  <path d="M9.68,56.65a.2.2,0,0,0,0-.4.2.2,0,0,0,0,.4Z" />
  <path d="M10.21,55.75a.2.2,0,0,0,0-.4.2.2,0,0,0,0,.4Z" />
  <path d="M3.56,18.78a.2.2,0,0,0,0-.4.2.2,0,0,0,0,.4Z" />
  <path d="M4.19,19.79a.2.2,0,0,0,0-.4.2.2,0,0,0,0,.4Z" />
  <path d="M4.86,19.27a.2.2,0,0,0,0-.4.2.2,0,0,0,0,.4Z" />
</svg>
