<svg id="Layer_1" data-name="Layer 1" xmlns="http://www.w3.org/2000/svg" viewBox="0 0 80 80"><path d="M77.21,27A.15.15,0,0,0,77,27l-1.37.44h0l-3.73,1,3.3-3.52.92.39h.06a.17.17,0,0,0,.14-.09.16.16,0,0,0-.08-.2l-.77-.32.79-.57a.14.14,0,0,0,0-.2.15.15,0,0,0-.21,0l-1,.72h0L72,27.87l2.33-5h1.06a.15.15,0,0,0,.15-.15.15.15,0,0,0-.15-.15h-1l.13-1.15a.15.15,0,0,0-.14-.17.15.15,0,0,0-.16.13l-.14,1.3-2.37,5.1.56-5.44.56-.86a.15.15,0,0,0,0-.21.16.16,0,0,0-.21.05l-.49.76-.7-.51a.15.15,0,0,0-.18.25l.76.54-.63,6a.23.23,0,0,0-.13.11,16.21,16.21,0,0,1-8.43,5.09,13.65,13.65,0,0,1,3.1-4c.31-.33.53-.52.53-.52s0-.08.06-.12l2.29-1.76,1.25.52.06,0a.15.15,0,0,0,.14-.1.14.14,0,0,0-.08-.19L69,27l1.11-.76a.16.16,0,0,0,0-.2A.15.15,0,0,0,70,26l-1.34.9h0l-2.25,1.73s0,0-.06,0l2.77-4.17,1.16-.13a.16.16,0,0,0,.13-.17.16.16,0,0,0-.17-.13l-1,.12.26-.92a.15.15,0,0,0-.1-.19.14.14,0,0,0-.18.1l-.32,1.12L66,28.47l1.67-5.66.75-.53a.15.15,0,0,0,0-.21.15.15,0,0,0-.21,0l-.64.44-.25-.66a.16.16,0,0,0-.2-.09.15.15,0,0,0-.08.19l.3.8L65.56,29l-.15.16a17.9,17.9,0,0,0-2.93,3.61,17.45,17.45,0,0,1,.09-6l0-.05v0l2.21-1.35.66.59a.14.14,0,0,0,.1,0,.16.16,0,0,0,.11,0,.14.14,0,0,0,0-.21L65,25.14l.57-.64a.15.15,0,0,0,0-.21.14.14,0,0,0-.21,0l-.66.73-2.11,1.3,1.74-4,1,.3h0a.15.15,0,0,0,0-.29l-.9-.28.69-1.1a.13.13,0,0,0,0-.2.15.15,0,0,0-.2,0l-.8,1.27h0l-1.57,3.62.62-5.4,1.15-.45a.15.15,0,0,0,.08-.19.15.15,0,0,0-.19-.09L63.09,20l-.56-1a.15.15,0,1,0-.26.14l.6,1.1L62.2,26l-1.69-4.88.38-.88a.15.15,0,0,0-.08-.2.16.16,0,0,0-.2.08l-.35.83L59,20.75a.16.16,0,0,0-.18.12A.15.15,0,0,0,59,21l1.28.24,1.7,4.93L58.39,23l-.26-.91a.15.15,0,1,0-.29.08l.24.84-.86.43a.15.15,0,0,0-.07.2.16.16,0,0,0,.14.08h.06l.89-.45,3.41,3.06-2.88-.91h0l-1.12-.25a.15.15,0,0,0-.18.11.16.16,0,0,0,.12.18l1,.22-.22.9a.15.15,0,0,0,.11.18h0a.14.14,0,0,0,.14-.11l.22-.89,3,.95-1.8.84L59,27.62a.16.16,0,0,0-.15.16.15.15,0,0,0,.15.14h0l1-.05v.78a.15.15,0,1,0,.3,0v-.84L61.9,27a19.22,19.22,0,0,0,0,6.15c-2-1.54-6.25-3.31-7.76-3.9l.46-2.74.62.22h0a.14.14,0,0,0,.14-.1.15.15,0,0,0-.09-.19l-.69-.25v-.91a.15.15,0,0,0-.15-.15.15.15,0,0,0-.15.15v1L53.9,29l-1.42-3,.29-.9a.15.15,0,1,0-.28-.1l-.28.86h-.84a.15.15,0,0,0,0,.3h.85l1.41,2.94-3.37-2L50,26.57a.14.14,0,0,0-.2-.07.15.15,0,0,0-.07.2l.27.55-.58.4a.15.15,0,0,0,0,.21.16.16,0,0,0,.12.06l.09,0,.61-.42,3.33,2L50,29.67l-1-.48a.16.16,0,0,0-.2.07.14.14,0,0,0,.07.2l.9.43-.44.75a.14.14,0,0,0,0,.2.11.11,0,0,0,.08,0,.12.12,0,0,0,.12-.07l.49-.82,3.47-.25L51.28,31.6l-.94.65a.15.15,0,0,0,.17.25l.81-.57.42.73a.16.16,0,0,0,.13.08l.08,0a.16.16,0,0,0,0-.21l-.44-.76,2.25-1.88-.1,2-.28.78a.14.14,0,0,0,.09.19h0a.15.15,0,0,0,.14-.1l.24-.66.9.35a.14.14,0,0,0,.19-.09A.15.15,0,0,0,55,32.2l-1-.36.1-1.93c1.48.59,6.29,2.58,7.83,4.08-.11.09-.26.21-.48.36-1.14.78-3.72,2-8.16,1.72-5-.32-8.21.35-9.93,2.07a4.66,4.66,0,0,0-1.24,2.35,9.66,9.66,0,0,0-.43-1.1c-.34-.72-.82-1.63-1.49-2.85,2.46-.78,3.65-3.56,3.7-3.69a.28.28,0,0,0,0-.28.3.3,0,0,0-.25-.13h-.72c1.14-1.85.68-6,.62-6.55a.32.32,0,0,0-.12-.2.35.35,0,0,0-.24-.06c-1.45.29-2.55,3-3,4.34-.16-.27-.35-.55-.49-.76a.3.3,0,0,0-.2-.13.32.32,0,0,0-.23.05c-.8.57-.73,3-.57,4.67-.12-.23-.24-.44-.38-.68l-.84-1.5s0,0,0-.06c-.61-1.09-1.21-2.18-1.78-3.25a5.55,5.55,0,0,1,1.6-3.69.29.29,0,0,0,0-.42.31.31,0,0,0-.43,0,5.68,5.68,0,0,0-1.66,3.26C32.8,22.85,31,18.61,31,15.84a6,6,0,0,0,1.89.24,37,37,0,0,0,6.89-.94L39,17.37l-1,.47a.15.15,0,0,0-.07.2.16.16,0,0,0,.14.08h.06l.92-.43.43.69a.13.13,0,0,0,.12.08.11.11,0,0,0,.08,0,.15.15,0,0,0,.05-.2l-.46-.75.89-2.41h0l0,0,2.36,1.67v1.07a.15.15,0,0,0,.15.15.14.14,0,0,0,.15-.15V16.69l.82-.7a.15.15,0,0,0,0-.21.16.16,0,0,0-.21,0l-.78.67-2.26-1.59,2.75-.61.61.64a.12.12,0,0,0,.1.05.21.21,0,0,0,.11,0,.16.16,0,0,0,0-.22L43.43,14l.36-.89A.14.14,0,0,0,43.7,13a.14.14,0,0,0-.19.08l-.36.9-2.77.62L41.81,12l1.12-.17a.15.15,0,0,0,.12-.17.15.15,0,0,0-.17-.13l-1,.16,0-.74a.15.15,0,0,0-.15-.14h0a.15.15,0,0,0-.15.16l0,.86-1.48,2.64h0L38.7,12.57l.15-1.2a.15.15,0,0,0-.13-.17.14.14,0,0,0-.17.13l-.13,1.11-.85-.16a.15.15,0,0,0-.17.13.15.15,0,0,0,.12.17l.94.17,1.28,1.78c-3.75.82-6.62,1.12-8,.88,2.09-.95,5.36-4.17,7.48-6.43a3.42,3.42,0,0,0,.77,1.69l0,.92a.14.14,0,0,0,.15.14h0a.15.15,0,0,0,.15-.15l0-.85,1-.22a.16.16,0,0,0,.12-.18.16.16,0,0,0-.18-.11l-1,.22a2.89,2.89,0,0,1-.68-1.76h0a7.92,7.92,0,0,0,3,.46h0l.19.7a.16.16,0,0,0,.14.11h0A.15.15,0,0,0,43,9.76L42.77,9l.61-1a.15.15,0,0,0,0-.21.16.16,0,0,0-.21,0l-.61,1h0a7.73,7.73,0,0,1-2.86-.4,21,21,0,0,0,2.8-1.65l.8.2h0a.16.16,0,0,0,.14-.12.15.15,0,0,0-.11-.18l-.76-.19L42.41,5.4c0-.09-.07-.13-.16-.14a.16.16,0,0,0-.14.17l.12,1.13a21.48,21.48,0,0,1-2.69,1.59l0,0a11.93,11.93,0,0,1,1-2.81l1.25-.61a.16.16,0,0,0,.07-.2.15.15,0,0,0-.2-.07L40.5,5l-.27-.87A.15.15,0,0,0,40,4a.14.14,0,0,0-.09.19l.3,1a15,15,0,0,0-1,2.63,11.78,11.78,0,0,1-.54-2.53l.52-1.17A.15.15,0,1,0,39,4L38.5,5l-.87-.84a.15.15,0,0,0-.21.21l1,1a11.31,11.31,0,0,0,.65,2.83,8.44,8.44,0,0,1-2.38-1.57V5.66a.16.16,0,0,0-.15-.16.15.15,0,0,0-.15.16V6.5l-.74,0a.15.15,0,0,0-.16.14.16.16,0,0,0,.15.16l.84,0a10,10,0,0,0,2.12,1.47c-.87,0-2.08,0-2.35-.06l-.72-.67a.15.15,0,0,0-.21.22l.64.59-.63.51a.16.16,0,0,0,0,.21.14.14,0,0,0,.12.06.18.18,0,0,0,.09,0l.71-.58c.24,0,1.17.07,2,.07h.52c-3.5,3.7-6.31,6.05-7.7,6.44,0-1.5.22-7.3,1.28-9.83a4,4,0,0,0,1,1.71l-.15.73a.16.16,0,0,0,.12.18h0a.16.16,0,0,0,.15-.12L33.61,7l1-.3a.14.14,0,0,0,.1-.18.15.15,0,0,0-.19-.1l-1,.3a4.17,4.17,0,0,1-1-1.79,5.82,5.82,0,0,0,2.3,0l.76.23h0A.16.16,0,0,0,35.77,5a.16.16,0,0,0-.1-.19L35,4.57a2.21,2.21,0,0,1,.72-.77.15.15,0,0,0-.18-.24c-.2.14-.79.6-.86,1a5.2,5.2,0,0,1-2.07,0,4.65,4.65,0,0,0,1.86-1.48,1.09,1.09,0,0,0,.94-.48.14.14,0,0,0-.06-.2.15.15,0,0,0-.2.06.82.82,0,0,1-.68.32,1.16,1.16,0,0,1,0-.92.14.14,0,0,0-.07-.2.15.15,0,0,0-.2.08A1.48,1.48,0,0,0,34.19,3a4.47,4.47,0,0,1-1.76,1.37l-.07,0a9.58,9.58,0,0,1,.23-2.37l.79-.34a.15.15,0,0,0,.08-.2.15.15,0,0,0-.2-.08l-.69.3L32.47,1A.15.15,0,0,0,32.3.85a.16.16,0,0,0-.13.17l.13.82A12.63,12.63,0,0,0,32,4.09,9.91,9.91,0,0,1,31,1.84l.31-.79a.15.15,0,0,0-.09-.19A.14.14,0,0,0,31,1l-.27.69L30,1.32a.16.16,0,0,0-.2.08.15.15,0,0,0,.08.2l.83.35a9.38,9.38,0,0,0,1.15,2.4,5.18,5.18,0,0,1-2.32-1l-.19-.9a.15.15,0,1,0-.29,0l.15.77h-.68a.15.15,0,0,0-.15.15.15.15,0,0,0,.15.15h.81A5.63,5.63,0,0,0,31.9,4.66v0a4.36,4.36,0,0,1-2.28,1h-.07c-.08-.45-.79-.81-.94-.89a.15.15,0,0,0-.2.07.14.14,0,0,0,.07.2c.34.17.82.51.78.73h0c0,.24-.67.26-.95.23a.15.15,0,0,0-.16.13.15.15,0,0,0,.13.17h.27c.31,0,.77-.06.94-.36h.13a4,4,0,0,0,2.06-.77c-1,2.73-1.2,7.88-1.23,9.58-2-1.71-3.71-6-4.38-7.83l1.76.61a9.86,9.86,0,0,0,.95.92.1.1,0,0,0,.07,0,.15.15,0,0,0,.08-.27c-.07-.05-.41-.39-.75-.74L29,7.19A.15.15,0,0,0,29.1,7a.14.14,0,0,0-.19-.09l-1,.37-2-.68,0-.06,0-.09L27,3.56l1-.66a.15.15,0,0,0,0-.21.14.14,0,0,0-.2,0l-.9.57-.21-.93a.15.15,0,0,0-.29.07l.24,1.09-1,2.77h0L24.49,3.56l.33-1.43A.14.14,0,0,0,24.71,2a.15.15,0,0,0-.18.11l-.3,1.29-1.3-.69a.15.15,0,0,0-.21.06.14.14,0,0,0,.07.2l1.43.76,1.12,2.66-.05,0L22,5.29l-.37-1.06a.16.16,0,0,0-.19-.1.16.16,0,0,0-.09.2l.35,1-.81.36a.16.16,0,0,0-.08.2.14.14,0,0,0,.14.09H21l.88-.4,3.3,1.09-2.9.94-.79-.53a.17.17,0,0,0-.21,0,.16.16,0,0,0,0,.21l.75.5-.33.8a.14.14,0,0,0,.08.19l.06,0a.15.15,0,0,0,.13-.1l.36-.84,3.06-1c.54,1.55,2.09,5.65,4.09,7.81a12.31,12.31,0,0,1-5.83-4.08l1.24,0,.54.5a.14.14,0,0,0,.1,0,.16.16,0,0,0,.11,0,.15.15,0,0,0,0-.21l-.46-.42.44-.29a.15.15,0,0,0-.17-.25l-.57.38-1.26.05.61-1.2L25,9a.17.17,0,0,0,.13-.18.15.15,0,0,0-.17-.12l-.64.1V8.22a.15.15,0,0,0-.15-.15.15.15,0,0,0-.15.15V9l-.72,1.42-.09,0L20.46,8.66l-.15-.73a.14.14,0,0,0-.17-.12A.16.16,0,0,0,20,8l.13.65-.81.2a.15.15,0,0,0,0,.3h0l.89-.22,2.32,1.48-2-.31H19.25a.15.15,0,1,0,0,.3h1.16l-.22.63a.14.14,0,0,0,.09.19h0a.15.15,0,0,0,.14-.1l.25-.71,2.19.34-1.14.82-1,.35a.14.14,0,0,0-.09.19.14.14,0,0,0,.19.09l.87-.3.07.68a.15.15,0,0,0,.15.14h0a.16.16,0,0,0,.13-.17L22,11.76l1.15-.82a12.8,12.8,0,0,0,6.24,4.37c-2.92.24-7.84-.73-10.78-1.39L18,11.67l.84-.48a.15.15,0,0,0,.06-.2.15.15,0,0,0-.21-.06l-.83.48-.48-.55a.15.15,0,0,0-.22.2l.53.61.56,2.18L15.61,11.9V11a.15.15,0,0,0-.15-.15.15.15,0,0,0-.15.15v.89l-.85.13a.16.16,0,0,0-.13.17.17.17,0,0,0,.15.13h0l.92-.13L18,14.05l-3.16-.13-1-.43a.15.15,0,0,0-.12.27l.86.38-.42.76a.15.15,0,0,0,.06.21l.07,0a.16.16,0,0,0,.13-.08l.46-.83,3.15.13L15.85,15.9l-1.25.21a.15.15,0,0,0-.12.17.14.14,0,0,0,.17.12l1.15-.19.23,1a.16.16,0,0,0,.15.12h0a.14.14,0,0,0,.11-.18l-.24-1,2.28-1.59-.13,2.11-.88.68a.15.15,0,0,0,0,.21.16.16,0,0,0,.12.06.14.14,0,0,0,.09,0l.85-.65.77.65a.16.16,0,0,0,.21,0,.14.14,0,0,0,0-.21l-.81-.68.13-2.08,1.87,1.88L20.3,17a.15.15,0,0,0,.08.2h.06a.17.17,0,0,0,.14-.09l.22-.56.8.18a.15.15,0,0,0,.06-.3l-.88-.19-1.6-1.6A47.94,47.94,0,0,0,28.37,16a11.78,11.78,0,0,0,1.23-.06,53.74,53.74,0,0,1-6.54,3.59L23,18.15l1-.73a.15.15,0,0,0-.18-.24l-.88.67-.27-.61a.15.15,0,0,0-.19-.07.14.14,0,0,0-.08.19l.33.76.09,1.5-.31.14-.06,0-1.2-1.08.12-.71a.17.17,0,0,0-.13-.18A.16.16,0,0,0,21,18l-.1.63L20,18.37a.14.14,0,0,0-.18.11.15.15,0,0,0,.11.18L21,18.9l1.07,1-2.72-.31-.68-.6a.15.15,0,0,0-.21,0,.14.14,0,0,0,0,.21l.6.53-.57.57a.16.16,0,0,0,0,.22.12.12,0,0,0,.1,0,.15.15,0,0,0,.11,0l.63-.64,2.77.32-1.79,1.27-1.41.13a.14.14,0,0,0-.13.16.15.15,0,0,0,.16.13l1.27-.11-.08.95a.15.15,0,0,0,.14.16h0a.15.15,0,0,0,.15-.14l.08-1.05,1.87-1.32.06,2.08-.68.93a.16.16,0,0,0,0,.21.16.16,0,0,0,.21,0l.59-.81.76.95a.16.16,0,0,0,.11.05.17.17,0,0,0,.1,0,.16.16,0,0,0,0-.21l-.85-1.06-.07-2.1.08,0,.28-.12,1.4,1.73-.13,1.19a.15.15,0,0,0,.13.16h0a.14.14,0,0,0,.15-.13L24.68,22l1,.12a.14.14,0,0,0,.17-.13.15.15,0,0,0-.13-.16l-1.07-.14-1.35-1.68a59.92,59.92,0,0,0,6.45-3.51A20.23,20.23,0,0,0,29.06,23L27.91,21.8l-.15-.93a.14.14,0,0,0-.17-.12.15.15,0,0,0-.13.17l.13.75-.92-.22a.15.15,0,0,0-.18.11.14.14,0,0,0,.11.18l1.09.26,1.38,1.47v.12l-2.75,1.57-.69-.51a.14.14,0,0,0-.21,0,.15.15,0,0,0,0,.21l.67.49-.34.76a.16.16,0,0,0,.08.2h.06a.13.13,0,0,0,.13-.09l.37-.82,2.67-1.53-.93,2.61L27.3,27a.16.16,0,0,0-.07.2.16.16,0,0,0,.2.07l.81-.4.71,1a.14.14,0,0,0,.12.06.16.16,0,0,0,.09,0,.15.15,0,0,0,0-.2l-.75-1.08L29.39,24l1,2.37-.23,1.19a.15.15,0,0,0,.12.18h0a.15.15,0,0,0,.15-.12l.21-1.06,1.05.44a.15.15,0,0,0,.19-.08.14.14,0,0,0-.08-.2l-1.16-.48-1.16-2.65h.13c-.12-3.26.16-5.8.76-7.16.24,3.75,3.21,9.58,6.46,15.4a.14.14,0,0,0,0,.06l.87,1.55c.39.69.77,1.36,1.12,2l.23.41c.13.22.26.45.37.67.78,1.4,1.29,2.37,1.66,3.15C43,43.44,42.42,50.3,41,60.12c-1.32-.33-2.43-1.86-3.64-4-2-3.6-.12-5.61,0-5.69a.29.29,0,0,0,0-.42.3.3,0,0,0-.42,0,4.57,4.57,0,0,0-1,3.42c-.6-1.11-1.22-2.24-1.92-3.42-1.72-4.15-.07-5.77-.05-5.78a.3.3,0,0,0,0-.42.29.29,0,0,0-.43,0c-.06.06-1.35,1.28-.78,4.24-2.4-3.64-4.16-4.9-7.78-6.61-3.18-1.51-5.15-5.25-5.8-6.68a11.23,11.23,0,0,0,2.72.3,26.22,26.22,0,0,0,4-.36l.32,1.77-.91.81a.17.17,0,0,0,0,.22.18.18,0,0,0,.12.05.21.21,0,0,0,.1,0l.87-.77.79.76a.15.15,0,1,0,.21-.21l-.86-.83-.32-1.79,1.56.89v1a.15.15,0,0,0,.15.15.15.15,0,0,0,.15-.15v-.91h1.23a.15.15,0,0,0,.15-.15.15.15,0,0,0-.15-.15H27.88l-1.32-.75h0a.3.3,0,0,0,.23-.35l2.06-.74.61.59a.15.15,0,0,0,.1,0,.16.16,0,0,0,.11,0,.15.15,0,0,0,0-.21l-.58-.56.48-.62a.16.16,0,0,0,0-.21.15.15,0,0,0-.21,0l-.53.69L26.54,34l-.08,0,1.83-2.12h.94a.15.15,0,0,0,.15-.15.14.14,0,0,0-.15-.15h-.89l-.18-.77a.15.15,0,0,0-.18-.12.15.15,0,0,0-.11.18l.19.82L26,34.07c-1.23.21-4.84.74-7,0A.84.84,0,0,0,19,34c.89-1.59,3.53-4.06,4.82-5.23l-.32,1.77-.51.9a.15.15,0,0,0,.06.2l.07,0a.14.14,0,0,0,.13-.08l.43-.76.8.64a.15.15,0,0,0,.19-.23l-.87-.7.38-2,1,1.41.2,1a.14.14,0,0,0,.14.12h0a.15.15,0,0,0,.12-.18l-.18-.9.88-.51a.16.16,0,0,0,.05-.21.15.15,0,0,0-.2-.05l-.86.5-1-1.39.18-.15a.3.3,0,0,0-.38-.46L24,26.26l.71-.67a.14.14,0,0,0,0-.21.15.15,0,0,0-.21,0l-.67.63-.59-.44a.15.15,0,0,0-.21,0,.16.16,0,0,0,0,.21l.64.48L24,27.86a43.64,43.64,0,0,0-4.58,4.6,38.78,38.78,0,0,0,.22-4.91l1.33-.24.16.82a.16.16,0,0,0,.15.12h0a.14.14,0,0,0,.12-.17l-.17-.81.77-.14a.15.15,0,0,0-.05-.29L21,27h0l-1.37.25,1.15-1.51,1.18-.1a.15.15,0,0,0,0-.3h0l-1.08.09V24.11a.15.15,0,0,0-.15-.15.14.14,0,0,0-.15.15v1.43L19.5,26.93a.33.33,0,0,0-.18-.07l-.41-2.11.55-.37a.16.16,0,0,0,0-.21.15.15,0,0,0-.21,0l-.53.36-.3-.34a.16.16,0,0,0-.22,0,.15.15,0,0,0,0,.21l.37.41L19,27,19,27l-1.77-1.45L17,25a.15.15,0,0,0-.19-.1.16.16,0,0,0-.09.2l.18.54-.63.46a.16.16,0,0,0,0,.21.16.16,0,0,0,.13.06.11.11,0,0,0,.08,0l.63-.45,1.82,1.48-1.63.23-.66-.27a.15.15,0,0,0-.19.09.14.14,0,0,0,.08.19l.58.23-.11.65a.14.14,0,0,0,.12.17h0a.15.15,0,0,0,.15-.13l.12-.66L19,27.65a28.26,28.26,0,0,1-.42,5.81,24.33,24.33,0,0,0-5.09-6.94L15,25l.38.57a.16.16,0,0,0,.13.06l.08,0a.15.15,0,0,0,0-.21l-.41-.6.85-.68a.15.15,0,0,0-.19-.24l-.95.77h0l-1.41,1.45.78-2.92,1.09.07h0a.15.15,0,0,0,.15-.14.15.15,0,0,0-.14-.16l-1.07-.07v-1a.15.15,0,0,0-.3,0V23l-.82,3.06L12.25,23l.5-.72a.15.15,0,0,0-.25-.17l-.47.68-1.12-.41a.16.16,0,0,0-.2.09.16.16,0,0,0,.09.19l1.16.43.88,3s-.05,0-.08,0l-3.22-2.8v-.9a.15.15,0,0,0-.15-.16.16.16,0,0,0-.15.16v.84L8,23.36a.16.16,0,0,0-.13.17.15.15,0,0,0,.15.13h0l1.29-.15,3.14,2.74L9.15,25.11l-1-.56a.15.15,0,0,0-.2.06.16.16,0,0,0,.06.21l.93.49-.32.76a.15.15,0,0,0,.08.2h.06a.17.17,0,0,0,.14-.09l.31-.76,3.53,1.2-1.91.68-1.07.05a.15.15,0,0,0-.14.15.15.15,0,0,0,.15.15h0l.93-.05,0,1.12a.14.14,0,0,0,.14.16h0a.16.16,0,0,0,.15-.15l0-1.18,2-.7c1,.95,4,4.07,5.18,7.16-2.33.09-6.42-2.43-7.72-3.28l1.35-1.3,1,.44.06,0a.17.17,0,0,0,.14-.09.16.16,0,0,0-.08-.2L12,29.2l.44-.62a.15.15,0,1,0-.24-.17l-.54.75-1.47,1.42L10,30.46H9.92L8.19,28.26v-.81a.15.15,0,1,0-.3,0v.71H6.71a.15.15,0,0,0,0,.3H8L9.6,30.53h0L6.14,29.37l-.95-.87a.15.15,0,0,0-.2.22l.84.77L5,30.14a.15.15,0,0,0,0,.21.16.16,0,0,0,.12.06.16.16,0,0,0,.09,0l.91-.71L9.38,30.8l-3,.32h0L5,31.33a.15.15,0,1,0,0,.3l1.19-.18-.27,1.1a.15.15,0,0,0,.11.18h0a.16.16,0,0,0,.15-.12l.3-1.21,3-.32L7.82,32.28h0l-1.08.88a.15.15,0,0,0,.19.23l.94-.76.45.89a.16.16,0,0,0,.14.08h.06a.14.14,0,0,0,.07-.2l-.48-.94,1.84-1.3c1.14.75,5.44,3.48,8.11,3.47l-.06.12c-1.19,1.33-5.54,1.4-7.72,1.29l.26-1.47.85-.78a.15.15,0,0,0,0-.21.15.15,0,0,0-.21,0l-.75.68L10,33.38a.16.16,0,0,0-.21-.06.16.16,0,0,0-.05.21l.54,1L10,36H9.85s-.08,0-.12,0l-2-.68-.24-.92a.15.15,0,1,0-.29.07l.23.89-.82.47a.16.16,0,0,0-.06.21.15.15,0,0,0,.13.07.11.11,0,0,0,.08,0l.86-.49,1.88.64s0,.05,0,.08l-2.19.88-1.26-.42a.15.15,0,1,0-.09.29l1.14.37-.58,1a.16.16,0,0,0,.06.21l.07,0a.16.16,0,0,0,.14-.08l.63-1.14,2.23-.91-1.1,1.87-1.06.74a.15.15,0,0,0,.17.25l.91-.64.31,1a.16.16,0,0,0,.15.11h0a.16.16,0,0,0,.1-.19l-.35-1.15L10,36.71l.39,1.56-.27,1.16a.15.15,0,0,0,.11.18h0a.14.14,0,0,0,.14-.11l.23-1,1,.66a.14.14,0,0,0,.2,0,.15.15,0,0,0,0-.21l-1.14-.75-.38-1.55c1.48.08,5.43.16,7.42-1a15.35,15.35,0,0,0,0,4.6l-2.25-1.39-.11-1.12a.15.15,0,0,0-.3,0l.11,1.07L14,39.18a.16.16,0,0,0-.11.19.16.16,0,0,0,.15.11h0l1.2-.33,2.25,1.39-3.47,0-1.42-.43a.15.15,0,0,0-.19.1.15.15,0,0,0,.1.19l1.22.36-.75.83a.14.14,0,0,0,0,.21.13.13,0,0,0,.1,0,.16.16,0,0,0,.11,0l.86-1,3.43,0-2.65,1.71L13,43a.15.15,0,1,0,.06.29l1.7-.38L14.58,44a.16.16,0,0,0,.12.18h0a.14.14,0,0,0,.14-.13l.24-1.28,2.66-1.72-1,2.46-.86.76a.15.15,0,0,0,0,.21.15.15,0,0,0,.21,0l.73-.64.42,1a.15.15,0,0,0,.14.09h.06a.14.14,0,0,0,.08-.19L17.1,43.6,18,41.41a.3.3,0,0,0,.21.1h.06l.87,2.41-.21,1.2a.15.15,0,0,0,.12.17h0a.15.15,0,0,0,.15-.13l.18-1.05,1.12.54a.15.15,0,0,0,.2-.07.14.14,0,0,0-.07-.2l-1.24-.6-.93-2.55s0-.05,0-.08l0-.09,1.61,1,.68,1.21a.17.17,0,0,0,.13.07.12.12,0,0,0,.08,0,.15.15,0,0,0,0-.2L20.36,42l.76-.51a.16.16,0,0,0,0-.21.15.15,0,0,0-.21,0l-.79.54-1.78-1.06c-.17-1.11-.5-3.95.13-5.65l0,0c.68,1.51,2.7,5.38,6.1,7,4.14,2,5.7,3.22,8.75,8.33.79,1.32,1.47,2.59,2.14,3.82l.25.47c-.59.93-2.87,1.37-4.16,1.51l.3-.74a.29.29,0,0,0-.11-.35.3.3,0,0,0-.37,0c-.53.47-2.55.17-3.93-.17l.33-.52a.3.3,0,0,0,0-.29.29.29,0,0,0-.24-.17c-.73-.07-1.81-1.11-2.4-1.77a13.47,13.47,0,0,1,2.12-.45.28.28,0,0,0,.22-.16.29.29,0,0,0,0-.27l-.16-.31A7.39,7.39,0,0,1,31.83,52a.3.3,0,0,0,.29,0,.31.31,0,0,0,.18-.22l.22-1.17a.3.3,0,0,0-.24-.35.31.31,0,0,0-.35.24l-.14.74a8.11,8.11,0,0,0-4.9-.91.31.31,0,0,0-.23.16.34.34,0,0,0,0,.28l.17.33a10.52,10.52,0,0,0-2.25.58.3.3,0,0,0-.17.21.31.31,0,0,0,.06.26,8,8,0,0,0,2.64,2.19l-.33.51a.32.32,0,0,0,0,.27.3.3,0,0,0,.2.18,11.81,11.81,0,0,0,4.15.47l-.22.54a.29.29,0,0,0,.28.41h0c.41,0,3.72-.28,4.91-1.57l.69,1.24v0h0A19.15,19.15,0,0,0,38.46,59,51.55,51.55,0,0,1,27.2,61.05a7.34,7.34,0,0,0-1.09.19,8.53,8.53,0,0,0-1.23-5.06.3.3,0,0,0-.21-.14.31.31,0,0,0-.24.07l-.49.42c-.27-2.4-2.73-4.35-2.85-4.44a.32.32,0,0,0-.25-.05.31.31,0,0,0-.21.16l-.25.55c-2.6-2.72-7.65-.33-7.87-.22a.3.3,0,0,0-.15.37A10.15,10.15,0,0,0,15.76,57a.94.94,0,0,1,0,.3.29.29,0,0,0-.21.18.3.3,0,0,0,.07.33,17.29,17.29,0,0,0,4.12,2.56l-.23,0a.28.28,0,0,0-.27.18.29.29,0,0,0,.05.32,5.88,5.88,0,0,0,3.79,1.6,31.3,31.3,0,0,0-4.18,2.91,5.73,5.73,0,0,0-1.52-.79c-.08-.27-.79-2.55-1.93-3.1a.41.41,0,0,0-.51.17A6.17,6.17,0,0,0,10.57,60a.3.3,0,0,0-.22.14.28.28,0,0,0,0,.26l0,.15c-1.42-.12-5.53-.21-7.66,2.55a.3.3,0,0,0,0,.38,5.81,5.81,0,0,0,4.83,1.69l-.16.55a.3.3,0,0,0,.2.36,11.51,11.51,0,0,0,3.52.5A12.48,12.48,0,0,0,17.23,65s0,0,.06-.07a5,5,0,0,1,1.36.71c-1.32,1.09-2.59,2.25-3.72,3.35a12,12,0,0,0-4.37.88.31.31,0,0,0-.17.23.29.29,0,0,0,.11.26l.3.26A5.73,5.73,0,0,0,9,71.94a.29.29,0,0,0,0,.31.3.3,0,0,0,.2.15,7.57,7.57,0,0,0-1.75,4.46.29.29,0,0,0,.09.21.27.27,0,0,0,.21.09h0c.16,0,3.48-.09,5-1.61l.14.63a.28.28,0,0,0,.18.21.3.3,0,0,0,.29,0,6.66,6.66,0,0,0,2.08-7,54.87,54.87,0,0,1,4.92-4.3c.07.3.17.75.27,1.31-.27.26-2.49,2.37-2.27,4.07a.3.3,0,0,0,.16.23l.39.19c-.23,1.07-.92,4.89.67,5.85h0a.28.28,0,0,0,.13,0h.05a.27.27,0,0,0,.12,0h0c2.94-1.66,3-5.14,3-6.25h.44a.31.31,0,0,0,.3-.29c0-2.18-2.45-3.79-2.55-3.85s-.05,0-.08,0h0c-.12-.63-.24-1.14-.31-1.42a18.74,18.74,0,0,1,5-2.84A7.86,7.86,0,0,0,25,65a.28.28,0,0,0,.11.22.34.34,0,0,0,.24.06l.25-.05a7.43,7.43,0,0,0-.22,3.34.29.29,0,0,0,.14.21.34.34,0,0,0,.26,0l.54-.22c.11,1,.52,3.49,2.05,4.48h0a.33.33,0,0,0,.14,0h0a.19.19,0,0,0,.12,0h0c1.73-1,2-3.91,2.06-4.87h.4a.3.3,0,0,0,.3-.3A8.32,8.32,0,0,0,30,64l.25-.07a.28.28,0,0,0,.2-.17.31.31,0,0,0,0-.25,7.55,7.55,0,0,0-2-2,52.82,52.82,0,0,0,10.41-2.07,4,4,0,0,0,2,1.23c-.28,1.92-.6,3.91-.92,6-.27,1.67-.54,3.39-.81,5.15A66,66,0,0,0,38.46,79a.3.3,0,0,0,.29.31h0a.31.31,0,0,0,.3-.29,65,65,0,0,1,.66-7.08c.27-1.75.54-3.47.81-5.15.1-.67.21-1.31.31-2a5.56,5.56,0,0,0,1.56,2.92.31.31,0,0,0,.5-.16v0c.61,1.33,2.22,3.38,6.32,3.38h.34a.3.3,0,0,0,.28-.39,19.44,19.44,0,0,0-2.52-5h.46a.29.29,0,0,0,.27-.16A.31.31,0,0,0,48,65c-.12-.17-2.9-3.84-6.65-3.77,0-.23.07-.48.1-.71,0,0,0,0,0,0a0,0,0,0,1,0,0,120.37,120.37,0,0,0,1.35-12c.36,1.85.87,4,1.39,4.6a.34.34,0,0,0,.25.11.31.31,0,0,0,.23-.14l.27-.39a6.43,6.43,0,0,0,2.14,3.65.26.26,0,0,0,.23,0,.3.3,0,0,0,.19-.14l.36-.63a54,54,0,0,1,5,3.34.34.34,0,0,0,.14,0h0a.35.35,0,0,0,.17-.06l0,0,0,0s0,0,0-.07,0,0,0-.08a11.06,11.06,0,0,0-1.87-7.8l.82-.17a.3.3,0,0,0,.23-.35A6.32,6.32,0,0,0,48.82,46l.24-.12a.31.31,0,0,0,.15-.23.29.29,0,0,0-.09-.26c-2-1.94-5.45-2.21-6.42-2.25l0-.24c.22-.48,1.62-3.18,4.51-2.1a.31.31,0,0,0,.39-.18.3.3,0,0,0-.18-.39,3.9,3.9,0,0,0-4.8,1.64,4.32,4.32,0,0,1,1.2-3.27c1.57-1.57,4.76-2.21,9.47-1.9a14.4,14.4,0,0,0,7.48-1.22c-.87,1.23-2.6,3.21-4.94,3.65a.59.59,0,0,0-.13-.19c-.7-.67-3.08-.47-3.59-.42l-.37-.57a.15.15,0,0,0-.21,0,.14.14,0,0,0,0,.2l.35.55-.77.76a.17.17,0,0,0,0,.21.17.17,0,0,0,.22,0l.81-.8c.8-.09,2.86-.18,3.4.33l.06.08a.3.3,0,0,0-.1.21h0a.3.3,0,0,0,.08.18c-.36.79-2.38,1.39-3.22,1.57l-1.38.21a.14.14,0,0,0-.12.17.15.15,0,0,0,.17.13l1.21-.19v1.12a.15.15,0,0,0,.15.15.15.15,0,0,0,.15-.15V41.45c.61-.14,2.91-.73,3.34-1.74h0c3.71-.64,5.91-4.7,6-4.91l.24-.17C62,37.27,60,41,59,42.58a6,6,0,0,0-2.15.07l-.27-1.15a.15.15,0,1,0-.29.07l.26,1.13-1,.17a.15.15,0,0,0-.12.17.16.16,0,0,0,.15.13h0L56.73,43h0a6.54,6.54,0,0,1,2.09-.12l-3.07,1.89-.89-1a.15.15,0,0,0-.22.21l.87.93-.85.69a.15.15,0,0,0,0,.21.16.16,0,0,0,.12.06.15.15,0,0,0,.09,0l1-.79,3-1.84-1.63,3.45-1.71.51a.16.16,0,0,0-.1.19.16.16,0,0,0,.19.1L57.1,47l-.21,1.23a.14.14,0,0,0,.12.17h0a.15.15,0,0,0,.15-.12l.25-1.45,1.63-3.44.33,4.23-.78.93a.15.15,0,0,0,0,.21.14.14,0,0,0,.21,0l.67-.79.46.94a.14.14,0,0,0,.13.09l.07,0a.16.16,0,0,0,.07-.2l-.55-1.13-.34-4.44,2.78,2.61.1,1a.14.14,0,0,0,.14.14h0a.16.16,0,0,0,.13-.17l-.08-.87,1.08.15a.15.15,0,0,0,.17-.12.15.15,0,0,0-.13-.17l-1.22-.18L59.57,43l3.61.17.55.83a.16.16,0,0,0,.12.06l.09,0a.15.15,0,0,0,0-.21l-.44-.65h1.11A.16.16,0,0,0,64.8,43a.15.15,0,0,0-.15-.15H63.26l-3.41-.16,4-1.61.88.58.08,0a.15.15,0,0,0,.13-.07.15.15,0,0,0,0-.21l-.78-.5.78-.66a.17.17,0,0,0,0-.22.15.15,0,0,0-.21,0l-.92.78-4,1.62c1.15-1.93,2.65-4.85,2.9-7.26,1.5,2.16,4.81,4,6.45,4.86L68,41.91l-.83-.23a.16.16,0,0,0-.19.11.15.15,0,0,0,.11.18l.8.22-.27.94a.16.16,0,0,0,.11.19h0a.15.15,0,0,0,.14-.11l.3-1.07,1.09-1.92L70.07,43l-1,.81a.15.15,0,1,0,.19.23l.93-.77.63.77a.16.16,0,0,0,.11,0,.17.17,0,0,0,.1,0,.16.16,0,0,0,0-.21l-.7-.86-.7-2.65,2.48,2.39v.72a.15.15,0,0,0,.15.15.15.15,0,0,0,.15-.15V42.8l1.09.17a.15.15,0,0,0,.17-.13.14.14,0,0,0-.12-.17l-1.22-.19-2.52-2.42,4.08.75.12.75a.16.16,0,0,0,.15.13h0a.15.15,0,0,0,.12-.17l-.12-.76.62-.31a.16.16,0,0,0,.06-.21.14.14,0,0,0-.2-.06l-.67.34L70,39.78l3.32-1.12,1,.31h0a.15.15,0,0,0,0-.29l-.83-.27.34-.6a.15.15,0,0,0-.05-.2.16.16,0,0,0-.21.05l-.4.71-3.63,1.23s0,0,0-.06c-1.29-.64-5.34-2.8-6.63-5.13A20.11,20.11,0,0,0,70,34.17L68.91,35.9l-.87.51a.16.16,0,0,0-.06.21.16.16,0,0,0,.21.05l.76-.44.31.71a.14.14,0,0,0,.13.09h.06a.15.15,0,0,0,.08-.2l-.35-.8,1.21-1.92L71.13,36l-.31,1a.15.15,0,0,0,.1.18h0a.15.15,0,0,0,.15-.11l.27-.86.87.36a.15.15,0,0,0,.2-.07.16.16,0,0,0-.08-.2l-1-.41L70.68,34l2.2.84.13,1a.15.15,0,0,0,.15.13h0a.16.16,0,0,0,.13-.17l-.12-.86h.88a.15.15,0,0,0,.15-.15.14.14,0,0,0-.15-.15h-1l-2.16-.83L73.54,33l.94.71a.18.18,0,0,0,.09,0,.17.17,0,0,0,.12-.06.15.15,0,0,0,0-.21l-.83-.64.57-.42a.16.16,0,0,0,0-.21.15.15,0,0,0-.21,0l-.72.52-2.79.79a.16.16,0,0,0-.09-.05l.26-1.25.67-.61a.17.17,0,0,0,0-.22.16.16,0,0,0-.22,0l-.58.53-.41-.52a.15.15,0,0,0-.21,0,.15.15,0,0,0,0,.21l.47.59-.27,1.29a20.56,20.56,0,0,1-6.63.45A16.44,16.44,0,0,0,71.56,29L73,30.47l-.3,1.22a.15.15,0,0,0,.11.18h0a.15.15,0,0,0,.15-.11l.28-1.12,1,.49a.15.15,0,0,0,.2-.06.14.14,0,0,0-.07-.2l-1.13-.57-1.51-1.57,3.88-1,.45.77a.17.17,0,0,0,.13.07l.07,0a.15.15,0,0,0,.06-.2l-.41-.71,1.19-.39A.15.15,0,0,0,77.21,27Zm-37.8,2.85a9,9,0,0,1,.55.9.3.3,0,0,0,.29.22.33.33,0,0,0,.29-.21c.32-1.09,1.32-3.81,2.43-4.45.16,1.7.24,5.24-.9,6.15a.31.31,0,0,0-.09.34.29.29,0,0,0,.28.2h.89a5.91,5.91,0,0,1-3.24,3l-.26-.46-.19-.35C39.19,33.37,39,30.79,39.41,29.89ZM8.17,64.59a.29.29,0,0,0-.27-.1,5.34,5.34,0,0,1-4.56-1.26c2.4-2.78,7.37-2.07,7.42-2.06a.33.33,0,0,0,.28-.11.33.33,0,0,0,.05-.29L11,60.56a6.18,6.18,0,0,1,3.83,1.89.31.31,0,0,0,.33.08.32.32,0,0,0,.19-.28.13.13,0,0,1,0-.06,5.59,5.59,0,0,1,1.27,2.17,58.83,58.83,0,0,0-8.26-1.75.15.15,0,0,0-.17.13.16.16,0,0,0,.13.17c.05,0,2.22.31,4.6.81a20.41,20.41,0,0,1-1.87,2.22,12.57,12.57,0,0,1-3-.38l.2-.69A.29.29,0,0,0,8.17,64.59Zm3.33,1.34a18.1,18.1,0,0,0,1.77-2.14,32.75,32.75,0,0,1,3.29.85A11.83,11.83,0,0,1,11.5,65.93Zm11.41,3.92h-.44a.3.3,0,0,0-.23.11.3.3,0,0,0-.07.23s.44,4.07-2.47,5.88c-1-.89-.49-4.1-.2-5.32a.29.29,0,0,0-.16-.33l-.45-.22c0-1,1.11-2.39,1.81-3.11a11.86,11.86,0,0,1-.25,5.55.15.15,0,0,0,.08.19h.06a.15.15,0,0,0,.14-.09A12.18,12.18,0,0,0,21,67.07,4.7,4.7,0,0,1,22.91,69.85ZM13,53c1.07-.46,5.28-2,7.19.52a.26.26,0,0,0,.27.12.3.3,0,0,0,.24-.17l.28-.62c.71.64,2.47,2.43,2.34,4.33a.3.3,0,0,0,.16.29.29.29,0,0,0,.33,0l.7-.59a7.52,7.52,0,0,1,.92,4.62l-.3.1c-.6-.32-2.28-1.32-2.59-2.43a8.14,8.14,0,0,0-6.52-5.43c-.09,0-.16.05-.16.13A.15.15,0,0,0,16,54a7.38,7.38,0,0,1,4.79,2.65,37.13,37.13,0,0,1-4.47.78,1.61,1.61,0,0,0,0-.6.31.31,0,0,0-.12-.19A10.39,10.39,0,0,1,13,53Zm7.13,7.95.59-.15a.3.3,0,0,0,.23-.27.3.3,0,0,0-.19-.29,22.23,22.23,0,0,1-4.42-2.51A36.08,36.08,0,0,0,21,56.86a7.38,7.38,0,0,1,1.26,2.31c.3,1.1,1.76,2.06,2.51,2.5l-.64.27A7.14,7.14,0,0,1,20.16,60.91ZM13.31,75.55l-.16-.76a.3.3,0,0,0-.25-.24.32.32,0,0,0-.3.15C11.78,76.16,9,76.48,8,76.54a7.7,7.7,0,0,1,2-4.22A.29.29,0,0,0,10.1,72a.31.31,0,0,0-.16-.16,10.38,10.38,0,0,1,1.53-.91.3.3,0,0,0,.17-.24.29.29,0,0,0-.11-.26l-.28-.24a12.67,12.67,0,0,1,3.45-.61,14,14,0,0,0-1.23,1h0a17.25,17.25,0,0,0-3.23,3.92.16.16,0,0,0,0,.21l.08,0a.17.17,0,0,0,.13-.07A16.7,16.7,0,0,1,13.4,71a7.57,7.57,0,0,0,1,3.09A6.25,6.25,0,0,1,13.31,75.55Zm1.24-1.76a6.53,6.53,0,0,1-.85-3c.51-.45.93-.77,1.19-1A5.85,5.85,0,0,1,14.55,73.79Zm11.06-9.18a8.86,8.86,0,0,1,.67-2.8l.52-.1c.15.42.45,1.32.75,2.4.07.82-.94,1.71-1.55,2.17A6.27,6.27,0,0,1,26.35,65a.32.32,0,0,0,0-.3.3.3,0,0,0-.29-.11Zm4.1-1.13-.26.07a.31.31,0,0,0-.2.19.31.31,0,0,0,0,.28,9.43,9.43,0,0,1,1.55,3.56h-.37a.31.31,0,0,0-.3.3s0,3.43-1.61,4.54c-1.48-1.16-1.65-4.28-1.65-4.31a.33.33,0,0,0-.14-.24.29.29,0,0,0-.27,0l-.57.23a7.12,7.12,0,0,1,0-1.39,5.14,5.14,0,0,0,1.78-1.94,18.38,18.38,0,0,1,.68,4,.15.15,0,0,0,.15.15h0a.16.16,0,0,0,.15-.16,28.37,28.37,0,0,0-1.59-7.09l.13,0,.33,0A12.11,12.11,0,0,1,29.71,63.48Zm13.15,2.59a.29.29,0,0,0-.3.24l-.13.58a7.34,7.34,0,0,1-1.19-4.62h0a14.32,14.32,0,0,1,2.81,2.45,11.62,11.62,0,0,1-.2,3.29,4.15,4.15,0,0,1-.7-1.68A.31.31,0,0,0,42.86,66.07Zm4.29-1.19h-.57a.3.3,0,0,0-.17.55c1.16.83,2.33,3.79,2.73,4.87-2.74,0-4.23-1-5-2a14.08,14.08,0,0,0,.29-3.22,8.87,8.87,0,0,1,1.28,2.12.15.15,0,0,0,.14.09h.06a.16.16,0,0,0,.08-.2,9.93,9.93,0,0,0-1.66-2.58h0a15,15,0,0,0-3-2.59l0-.1C44,61.74,46.27,63.9,47.15,64.88Zm-2-13.26a.31.31,0,0,0-.32.12l-.38.58A9.3,9.3,0,0,1,44,50.8,11.36,11.36,0,0,0,45.05,47c.05.13.1.24.15.38a10,10,0,0,0,2,3.1,9.37,9.37,0,0,1-1,3.72,9.73,9.73,0,0,1-.78-2.37A.29.29,0,0,0,45.19,51.62Zm2.52,3.25a.33.33,0,0,0-.18.15l-.33.59a3.77,3.77,0,0,1-.84-1.08,8.58,8.58,0,0,0,1.14-3.71L48.58,52c1.71,1.89,3.62,4,4.13,6-2.1-1.54-4.74-3.07-4.77-3.09A.3.3,0,0,0,47.71,54.87ZM51,50.43a.3.3,0,0,0-.22.2.31.31,0,0,0,.06.29,10.33,10.33,0,0,1,2.11,5.85A23.07,23.07,0,0,0,49,51.63a28.7,28.7,0,0,1-2.63-3.18,18.47,18.47,0,0,0,5.19.79,5,5,0,0,1,.37,1Zm-2.57-4.91-.43.23a.3.3,0,0,0-.16.29.3.3,0,0,0,.21.26,6.76,6.76,0,0,1,3.4,2.64A16.48,16.48,0,0,1,46.13,48a4.54,4.54,0,0,1-.36-.79,7.29,7.29,0,0,0-2.19-3.43A9.8,9.8,0,0,1,48.39,45.52Zm-3.57.92a14,14,0,0,1-.94,3.93c-.44-1.76-.82-4-1-5.1,0,0,0,0,0-.05,0-.44,0-.86-.08-1.26A6,6,0,0,1,44.82,46.44Z"/><path d="M46.83,47a.2.2,0,0,0,0-.4A.2.2,0,0,0,46.83,47Z"/><path d="M29.56,53.2a.2.2,0,0,0,0-.4A.2.2,0,0,0,29.56,53.2Z"/><path d="M33.08,53.61a.2.2,0,0,0,0,.4A.2.2,0,0,0,33.08,53.61Z"/><path d="M58.26,33.77a.2.2,0,0,0,0,.4A.2.2,0,0,0,58.26,33.77Z"/><path d="M56.4,32.39a.2.2,0,0,0,0,.4A.2.2,0,0,0,56.4,32.39Z"/><path d="M55.81,33.91a.2.2,0,0,0,0,.4A.2.2,0,0,0,55.81,33.91Z"/><path d="M63.27,38.59a.2.2,0,0,0,0-.4A.2.2,0,0,0,63.27,38.59Z"/><path d="M66,36.53a.2.2,0,0,0,0-.4A.2.2,0,0,0,66,36.53Z"/><path d="M63.42,28.7a.2.2,0,0,0,0-.4A.2.2,0,0,0,63.42,28.7Z"/><path d="M14,30.63a.2.2,0,0,0,0,.4A.2.2,0,0,0,14,30.63Z"/><path d="M15.45,31.63a.2.2,0,0,0,0,.4A.2.2,0,0,0,15.45,31.63Z"/><path d="M32.93,10.28a.2.2,0,0,0,0,.4A.2.2,0,0,0,32.93,10.28Z"/><path d="M34.46,10.54a.2.2,0,0,0,0,.4A.2.2,0,0,0,34.46,10.54Z"/><path d="M32.77,11.81a.2.2,0,0,0,0,.4A.2.2,0,0,0,32.77,11.81Z"/><path d="M32.66,18.08a.2.2,0,0,0,0-.4A.2.2,0,0,0,32.66,18.08Z"/><path d="M34.46,18a.2.2,0,0,0,0-.4A.2.2,0,0,0,34.46,18Z"/><path d="M33.67,19.77a.2.2,0,0,0,0-.4A.2.2,0,0,0,33.67,19.77Z"/><path d="M23.52,13.45a.2.2,0,0,0,0,.4A.2.2,0,0,0,23.52,13.45Z"/><path d="M22.25,36.84a.2.2,0,0,0,0-.4A.2.2,0,0,0,22.25,36.84Z"/><path d="M23.78,36.13a.2.2,0,0,0,0,.4A.2.2,0,0,0,23.78,36.13Z"/><path d="M23.46,37.55a.2.2,0,0,0,0,.4A.2.2,0,0,0,23.46,37.55Z"/></svg>